<svg width="20" height="22" viewBox="0 0 20 22" fill="none" xmlns="http://www.w3.org/2000/svg">
<path d="M16 7C16 5.4087 15.3679 3.88258 14.2426 2.75736C13.1174 1.63214 11.5913 1 10 1C8.4087 1 6.88258 1.63214 5.75736 2.75736C4.63214 3.88258 4 5.4087 4 7C4 14 1 16 1 16H19C19 16 16 14 16 7Z" stroke="#0F59C7" stroke-width="2" stroke-linecap="round" stroke-linejoin="round"/>
<path d="M11.46 20C11.2842 20.3031 11.0318 20.5547 10.7282 20.7295C10.4246 20.9044 10.0804 20.9965 9.73 20.9965C9.37962 20.9965 9.03539 20.9044 8.73177 20.7295C8.42816 20.5547 8.17581 20.3031 8 20" stroke="#0F59C7" stroke-width="2" stroke-linecap="round" stroke-linejoin="round"/>
</svg>
