<svg width="160" height="50" viewBox="0 0 160 50" fill="none" xmlns="http://www.w3.org/2000/svg">
<g clip-path="url(#clip0_420_2360)">
<path d="M83.6501 11.3877H71.2559C71.2607 11.4093 71.2607 11.4316 71.2559 11.4533C69.2632 11.6228 67.4721 13.4873 67.4427 15.5214C67.4045 18.1993 67.4045 20.8779 67.4427 23.5573C67.4725 25.6942 69.2573 27.5396 71.3882 27.7075C72.4899 27.7944 73.5951 27.7373 74.6975 27.7405C77.5947 27.748 80.4919 27.7405 83.3886 27.7501C83.7089 27.7501 83.8123 27.6696 83.8011 27.3434C83.7765 26.6457 83.7713 25.9453 83.8011 25.2476C83.817 24.884 83.7018 24.8035 83.3509 24.8046C79.5706 24.8174 75.7904 24.8197 72.0098 24.8116C70.9646 24.8116 70.3355 24.1841 70.3295 23.1453C70.3251 22.3425 70.3502 21.5392 70.3196 20.7381C70.3045 20.3527 70.4006 20.2424 70.8044 20.2445C74.0259 20.2632 77.2477 20.2515 80.47 20.2616C80.7649 20.2616 80.8738 20.2024 80.8622 19.8842C80.8364 19.1731 80.836 18.4599 80.8622 17.7521C80.8746 17.4179 80.7939 17.3161 80.4398 17.3182C77.9714 17.3352 75.5031 17.3273 73.0347 17.3273C72.2423 17.3273 71.4498 17.3187 70.6578 17.3321C70.4062 17.3368 70.3073 17.2692 70.3236 17.0064C70.345 16.6711 70.3235 16.3337 70.3295 15.9973C70.3398 14.9478 70.9546 14.3449 72.0086 14.3449C75.8154 14.3449 79.6227 14.3469 83.4296 14.3508C83.7137 14.3508 83.8087 14.2938 83.8035 13.9926C83.7848 13.1264 83.8035 12.2597 83.8075 11.393L83.6501 11.3877Z" fill="#F8F6F6"/>
<path d="M134.312 11.4639C134.309 11.4543 134.303 11.4437 134.305 11.4356C134.312 11.419 134.32 11.4029 134.33 11.3877H125.441C125.445 11.4906 125.453 11.5935 125.453 11.6969C125.453 16.9138 125.452 22.1306 125.45 27.3471C125.45 27.5881 125.443 27.7528 125.783 27.7507C128.447 27.7368 131.111 27.7448 133.774 27.7405C134.06 27.7384 134.345 27.7192 134.628 27.683C139.768 27.0593 143.061 21.8335 141.393 16.9456C140.35 13.8849 137.35 11.5625 134.312 11.4639ZM134.35 24.7694C133.625 24.876 132.898 24.8137 132.171 24.8227C131.041 24.835 129.91 24.8089 128.781 24.836C128.42 24.8446 128.36 24.7294 128.363 24.4027C128.379 22.7977 128.37 21.1923 128.37 19.5873C128.37 17.9696 128.378 16.3513 128.363 14.7335C128.36 14.4244 128.451 14.3433 128.756 14.346C130.38 14.3609 132.004 14.346 133.628 14.354C136.325 14.3647 138.676 16.5016 138.853 19.098C139.048 21.9705 137.15 24.3606 134.35 24.7694Z" fill="#F8F6F6"/>
<path d="M63.4554 12.2672C62.9137 11.8013 62.2572 11.5801 61.5872 11.3877H50.75C50.7544 11.5167 50.7619 11.6451 50.7619 11.7741C50.7619 16.9648 50.7591 22.1555 50.7544 27.3461C50.7544 27.6894 50.837 27.7874 51.1812 27.7725C51.8818 27.7437 52.5849 27.7469 53.2855 27.7725C53.6126 27.7837 53.7271 27.7192 53.7215 27.3578C53.6988 25.7012 53.7215 24.044 53.7044 22.3873C53.702 22.1021 53.7664 22.0201 54.0645 22.0222C56.325 22.036 58.5863 21.9918 60.846 22.0419C62.5767 22.0798 63.79 21.2456 64.7319 19.9316C65.5116 18.8442 65.6237 17.5783 65.4791 16.29C65.3046 14.7053 64.6922 13.3285 63.4554 12.2672ZM62.281 18.1135C61.9993 18.695 61.5732 19.0164 60.8742 19.0084C58.6141 18.9839 56.3532 18.994 54.0931 19.0084C53.7986 19.0084 53.6992 18.9498 53.704 18.6353C53.7251 17.4061 53.7251 16.1766 53.704 14.9467C53.6992 14.6339 53.7648 14.5272 54.1022 14.5342C55.2575 14.5566 56.414 14.5427 57.5713 14.5427C58.7142 14.5427 59.8576 14.5427 61.001 14.5427C61.7211 14.5427 62.1269 14.8439 62.3717 15.5192C62.692 16.3955 62.6928 17.2633 62.281 18.1135Z" fill="#F8F6F6"/>
<path d="M159.691 17.4344C158.792 14.1962 156.094 11.8711 152.736 11.4612C152.674 11.4538 152.604 11.4612 152.572 11.3877H150.938C150.725 11.529 150.474 11.5007 150.241 11.5407C146.657 12.1574 143.786 15.4473 143.591 19.05C143.316 24.1244 147.551 28.0412 152.343 27.7219C155.96 27.4815 159.164 24.7087 159.828 21.1293C159.864 20.9353 159.84 20.7216 159.98 20.5531V18.6113C159.805 18.2387 159.797 17.8246 159.691 17.4344ZM151.774 24.8126C148.884 24.8126 146.532 22.4438 146.535 19.5292C146.538 16.6567 148.9 14.3348 151.816 14.3396C154.672 14.3439 157.027 16.7073 157.029 19.5702C157.03 22.4331 154.652 24.8099 151.774 24.8126Z" fill="#F8F6F6"/>
<path d="M104.468 11.3877H101.505C101.496 11.8781 101.479 12.369 101.478 12.8594C101.478 17.6854 101.476 22.5111 101.473 27.3365C101.473 27.6195 101.485 27.7896 101.854 27.7736C102.58 27.7427 103.309 27.7443 104.035 27.7736C104.388 27.7874 104.462 27.675 104.462 27.3386C104.45 23.1597 104.448 18.9809 104.454 14.8023C104.457 13.6632 104.464 12.5257 104.468 11.3877Z" fill="#F8F6F6"/>
<path d="M123.089 11.4586C123.093 11.4346 123.097 11.4112 123.1 11.3877H120.215C120.209 11.4103 120.211 11.4346 120.222 11.4554C120.216 11.61 120.204 11.7645 120.204 11.9191C120.204 15.0516 120.202 18.1842 120.2 21.317C120.2 21.4465 120.253 21.5936 120.131 21.7327L106.759 11.4676C106.747 11.6105 106.74 11.658 106.74 11.7059C106.74 16.9612 106.738 22.2164 106.734 27.4713C106.734 27.7224 106.825 27.7725 107.052 27.7688C107.792 27.7576 108.533 27.7443 109.273 27.7736C109.62 27.7874 109.7 27.691 109.7 27.3471C109.685 24.2151 109.691 21.0825 109.691 17.9498V17.4573L123.087 27.7395C123.176 27.5646 123.147 27.4197 123.147 27.2843C123.147 22.1455 123.147 17.0067 123.147 11.868C123.142 11.7326 123.191 11.5844 123.089 11.4586Z" fill="#F8F6F6"/>
<path d="M98.7833 24.8185C96.1722 24.8254 93.5612 24.8185 90.9502 24.8126C89.5624 24.8126 88.5748 23.8249 88.5748 22.4433C88.5748 18.9359 88.5748 15.4286 88.5748 11.9213C88.5748 11.7672 88.5549 11.6137 88.5446 11.4602C88.5474 11.4352 88.5538 11.4108 88.5633 11.3877H85.6816C85.6848 11.4112 85.6884 11.4346 85.692 11.4581C85.6149 11.5311 85.6387 11.6265 85.6387 11.7139C85.6387 15.3252 85.6125 18.9365 85.6459 22.5472C85.6717 25.3888 87.8666 27.6947 90.6295 27.7517C93.3824 27.8088 96.1373 27.7618 98.8918 27.7693C99.1159 27.7693 99.1783 27.7006 99.1743 27.4825C99.1628 26.7193 99.1521 25.9549 99.1787 25.1905C99.1847 24.8728 99.0754 24.8179 98.7833 24.8185Z" fill="#F8F6F6"/>
<path d="M14.8859 38.358C14.8859 38.4898 14.8812 38.6216 14.8812 38.753C14.8812 42.1315 14.8812 45.5101 14.8812 48.8887C14.8812 48.9482 14.8847 49.0077 14.8863 49.0665H14.8068C14.7345 48.995 14.6431 49.0268 14.5616 49.0268C11.1386 49.0248 7.71585 49.0248 4.29357 49.0268C4.2892 48.9546 4.28125 48.8823 4.28125 48.8105C4.28125 45.4049 4.28125 41.9998 4.28125 38.5946C4.28125 38.5152 4.28483 38.4358 4.28721 38.3564L4.28363 38.3588C4.34921 38.364 4.41478 38.3727 4.48036 38.3731H14.6721C14.744 38.3731 14.8164 38.364 14.8887 38.3592L14.8859 38.358Z" fill="#2EB7EA"/>
<path d="M4.28906 49.0678L4.29622 49.0281C7.71877 49.0281 11.1414 49.0281 14.5643 49.0281C14.6457 49.0281 14.7372 48.9948 14.8095 49.0678H4.28906Z" fill="#2FB7EA"/>
<path d="M33.0748 0.950582C33.1543 0.946216 33.2338 0.937486 33.3133 0.937486C36.4096 0.937486 39.5058 0.940263 42.6017 0.931134C42.7197 0.927087 42.837 0.949231 42.9455 0.995972C43.054 1.04271 43.1505 1.11289 43.2284 1.20143C43.4764 1.46578 43.6219 1.77617 43.6366 2.14174C43.6402 2.22773 43.6421 2.3136 43.6418 2.39933C43.6418 5.31351 43.6418 8.22768 43.6418 11.1419C43.6418 13.2165 43.672 15.2924 43.6159 17.3655C43.5364 20.3174 42.8425 23.1379 41.5704 25.8052C39.3751 30.4095 35.9908 33.8515 31.4176 36.1314C29.2795 37.1984 27.0142 37.8656 24.642 38.1704C23.6187 38.2983 22.5882 38.3605 21.5569 38.3566C19.3343 38.3566 17.1115 38.3577 14.8886 38.3601H14.8918C14.8851 38.2808 14.8724 38.2037 14.8724 38.1252C14.8695 36.1718 14.8677 34.2186 14.8672 32.2655C14.8672 30.7678 14.8685 29.2699 14.8712 27.7719C14.8739 27.7715 14.8766 27.7704 14.8789 27.7688C14.8812 27.7672 14.8832 27.7651 14.8847 27.7627C14.8861 27.7603 14.8871 27.7577 14.8874 27.7548C14.8877 27.7521 14.8875 27.7492 14.8867 27.7465C14.9661 27.7442 15.0456 27.7398 15.1251 27.7398C17.4333 27.7398 19.7416 27.7398 22.0501 27.7398C22.8646 27.7334 23.6754 27.6287 24.4648 27.4282C25.6845 27.1333 26.846 26.6361 27.9009 25.9572C28.9263 25.2997 29.8395 24.4823 30.6057 23.536C31.2363 22.756 31.7578 21.894 32.1556 20.9735C32.6377 19.8661 32.9167 18.7087 33.0343 17.51C33.0895 16.9448 33.0788 16.378 33.078 15.8112C33.0764 14.3116 33.0746 12.8122 33.0725 11.3129C33.0725 8.91475 33.0725 6.51669 33.0725 4.11878C33.0719 3.06377 33.0727 2.00771 33.0748 0.950582Z" fill="#F8F6F6"/>
<path d="M14.8847 27.7457C14.8856 27.7484 14.8858 27.7513 14.8854 27.7541C14.8851 27.7569 14.8842 27.7595 14.8827 27.7619C14.8812 27.7644 14.8793 27.7664 14.877 27.768C14.8746 27.7696 14.872 27.7706 14.8692 27.7711C14.7969 27.7668 14.7246 27.7584 14.6526 27.7584H4.48393C4.41796 27.7584 4.35238 27.762 4.28522 27.764V27.7485C4.2876 25.6409 4.20852 23.5297 4.30867 21.4268C4.53241 16.7221 6.1503 12.516 9.11741 8.85005C11.8759 5.44251 15.3608 3.07807 19.5409 1.74085C20.6238 1.39858 21.7322 1.14282 22.8557 0.975986C23.0192 0.951601 23.1844 0.939658 23.3497 0.940263C26.5314 0.937881 29.713 0.937881 32.8945 0.940263C32.9541 0.940263 33.0137 0.945823 33.0725 0.948998C33.0725 2.00586 33.0712 3.06285 33.0685 4.11998C33.0685 6.51788 33.0685 8.91594 33.0685 11.3141C30.6867 11.3141 28.305 11.3141 25.9234 11.3141C24.7712 11.3143 23.6273 11.509 22.5402 11.89C19.7773 12.8527 17.6809 14.6124 16.251 17.1691C15.459 18.5841 14.9698 20.1114 14.9078 21.7233C14.8323 23.7262 14.8891 25.7369 14.8847 27.7457Z" fill="#2FB7EA"/>
<path d="M4.28694 27.75C4.22136 27.7469 4.15579 27.7405 4.09021 27.7405C2.74323 27.7405 1.39626 27.7405 0.0492793 27.7405L0 27.7354V38.362L0.0492793 38.3565L4.28455 38.3593C4.28455 34.8286 4.28455 31.2978 4.28455 27.7671L4.28694 27.75Z" fill="#F8F6F6"/>
<path d="M4.28787 38.3604H4.28516V38.3622L4.28787 38.3604Z" fill="#0974BA"/>
</g>
<defs>
<clipPath id="clip0_420_2360">
<rect width="160" height="48.1859" fill="white" transform="translate(0 0.907227)"/>
</clipPath>
</defs>
</svg>
