<svg width="28" height="29" viewBox="0 0 28 29" fill="none" xmlns="http://www.w3.org/2000/svg">
<g clip-path="url(#clip0_464_6961)">
<path d="M20.4182 18.5158C22.0783 16.2505 22.8218 13.442 22.5 10.6521C22.1783 7.86214 20.8149 5.29659 18.6828 3.46867C16.5507 1.64076 13.807 0.685294 11.0007 0.793427C8.19437 0.90156 5.53235 2.06532 3.54721 4.05188C1.56208 6.03843 0.400224 8.70129 0.294099 11.5077C0.187974 14.3141 1.1454 17.0571 2.97484 19.1879C4.80428 21.3187 7.37081 22.6802 10.161 23C12.9511 23.3197 15.7591 22.5742 18.0232 20.9125H18.0215C18.0729 20.9811 18.1278 21.0462 18.1895 21.1097L24.7899 27.7101C25.1114 28.0318 25.5475 28.2126 26.0023 28.2128C26.4571 28.213 26.8933 28.0325 27.215 27.711C27.5367 27.3895 27.7175 26.9534 27.7176 26.4987C27.7178 26.0439 27.5373 25.6077 27.2158 25.286L20.6154 18.6855C20.5541 18.6235 20.4882 18.5662 20.4182 18.5141V18.5158ZM20.8605 11.9256C20.8605 13.1639 20.6166 14.39 20.1428 15.534C19.6689 16.678 18.9744 17.7175 18.0988 18.5931C17.2232 19.4687 16.1837 20.1632 15.0397 20.6371C13.8957 21.1109 12.6696 21.3548 11.4313 21.3548C10.193 21.3548 8.9669 21.1109 7.82289 20.6371C6.67889 20.1632 5.63942 19.4687 4.76383 18.5931C3.88825 17.7175 3.1937 16.678 2.71983 15.534C2.24597 14.39 2.00208 13.1639 2.00208 11.9256C2.00208 9.42482 2.99551 7.02646 4.76383 5.25814C6.53216 3.48982 8.93052 2.49638 11.4313 2.49638C13.9321 2.49638 16.3304 3.48982 18.0988 5.25814C19.8671 7.02646 20.8605 9.42482 20.8605 11.9256Z" fill="#F8F6F6"/>
</g>
<defs>
<clipPath id="clip0_464_6961">
<rect width="27.4315" height="27.4276" fill="white" transform="translate(0.286133 0.785156)"/>
</clipPath>
</defs>
</svg>
