<svg width="24" height="25" viewBox="0 0 24 25" fill="none" xmlns="http://www.w3.org/2000/svg">
<path d="M12.22 2.16406H11.78C11.2496 2.16406 10.7409 2.37478 10.3658 2.74985C9.99072 3.12492 9.78 3.63363 9.78 4.16406V4.34406C9.77964 4.69479 9.68706 5.03925 9.51154 5.3429C9.33602 5.64655 9.08374 5.8987 8.78 6.07406L8.35 6.32406C8.04596 6.4996 7.70108 6.59201 7.35 6.59201C6.99893 6.59201 6.65404 6.4996 6.35 6.32406L6.2 6.24406C5.74107 5.97933 5.19584 5.90751 4.684 6.04437C4.17217 6.18123 3.73555 6.5156 3.47 6.97406L3.25 7.35406C2.98526 7.813 2.91345 8.35823 3.05031 8.87006C3.18717 9.3819 3.52154 9.81851 3.98 10.0841L4.13 10.1841C4.43228 10.3586 4.68362 10.6092 4.85905 10.9109C5.03448 11.2126 5.1279 11.555 5.13 11.9041V12.4141C5.1314 12.7665 5.03965 13.113 4.86405 13.4186C4.68844 13.7241 4.43521 13.9779 4.13 14.1541L3.98 14.2441C3.52154 14.5096 3.18717 14.9462 3.05031 15.4581C2.91345 15.9699 2.98526 16.5151 3.25 16.9741L3.47 17.3541C3.73555 17.8125 4.17217 18.1469 4.684 18.2838C5.19584 18.4206 5.74107 18.3488 6.2 18.0841L6.35 18.0041C6.65404 17.8285 6.99893 17.7361 7.35 17.7361C7.70108 17.7361 8.04596 17.8285 8.35 18.0041L8.78 18.2541C9.08374 18.4294 9.33602 18.6816 9.51154 18.9852C9.68706 19.2889 9.77964 19.6333 9.78 19.9841V20.1641C9.78 20.6945 9.99072 21.2032 10.3658 21.5783C10.7409 21.9533 11.2496 22.1641 11.78 22.1641H12.22C12.7504 22.1641 13.2591 21.9533 13.6342 21.5783C14.0093 21.2032 14.22 20.6945 14.22 20.1641V19.9841C14.2204 19.6333 14.3129 19.2889 14.4885 18.9852C14.664 18.6816 14.9163 18.4294 15.22 18.2541L15.65 18.0041C15.954 17.8285 16.2989 17.7361 16.65 17.7361C17.0011 17.7361 17.346 17.8285 17.65 18.0041L17.8 18.0841C18.2589 18.3488 18.8042 18.4206 19.316 18.2838C19.8278 18.1469 20.2645 17.8125 20.53 17.3541L20.75 16.9641C21.0147 16.5051 21.0866 15.9599 20.9497 15.4481C20.8128 14.9362 20.4785 14.4996 20.02 14.2341L19.87 14.1541C19.5648 13.9779 19.3116 13.7241 19.136 13.4186C18.9604 13.113 18.8686 12.7665 18.87 12.4141V11.9141C18.8686 11.5616 18.9604 11.2151 19.136 10.9096C19.3116 10.604 19.5648 10.3503 19.87 10.1741L20.02 10.0841C20.4785 9.81851 20.8128 9.3819 20.9497 8.87006C21.0866 8.35823 21.0147 7.813 20.75 7.35406L20.53 6.97406C20.2645 6.5156 19.8278 6.18123 19.316 6.04437C18.8042 5.90751 18.2589 5.97933 17.8 6.24406L17.65 6.32406C17.346 6.4996 17.0011 6.59201 16.65 6.59201C16.2989 6.59201 15.954 6.4996 15.65 6.32406L15.22 6.07406C14.9163 5.8987 14.664 5.64655 14.4885 5.3429C14.3129 5.03925 14.2204 4.69479 14.22 4.34406V4.16406C14.22 3.63363 14.0093 3.12492 13.6342 2.74985C13.2591 2.37478 12.7504 2.16406 12.22 2.16406V2.16406Z" stroke="#383838" stroke-width="2" stroke-linecap="round" stroke-linejoin="round"/>
<path d="M12 15.1641C13.6569 15.1641 15 13.8209 15 12.1641C15 10.5072 13.6569 9.16406 12 9.16406C10.3431 9.16406 9 10.5072 9 12.1641C9 13.8209 10.3431 15.1641 12 15.1641Z" stroke="#383838" stroke-width="2" stroke-linecap="round" stroke-linejoin="round"/>
</svg>
